<?xml version="1.0" encoding="UTF-8" standalone="no"?>
<!-- Created with Inkscape (http://www.inkscape.org/) -->

<svg
   xmlns:dc="http://purl.org/dc/elements/1.1/"
   xmlns:cc="http://creativecommons.org/ns#"
   xmlns:rdf="http://www.w3.org/1999/02/22-rdf-syntax-ns#"
   xmlns:svg="http://www.w3.org/2000/svg"
   xmlns="http://www.w3.org/2000/svg"
   xmlns:sodipodi="http://sodipodi.sourceforge.net/DTD/sodipodi-0.dtd"
   xmlns:inkscape="http://www.inkscape.org/namespaces/inkscape"
   width="219.08871"
   height="103.32607"
   id="svg4709"
   version="1.1"
   inkscape:version="0.48.4 r9939"
   sodipodi:docname="Novo documento 15">
  <defs
     id="defs4711">
    <filter
       color-interpolation-filters="sRGB"
       inkscape:collect="always"
       id="filter4451-10"
       x="-0.049180493"
       width="1.098361"
       y="-0.24228574"
       height="1.4845715">
      <feGaussianBlur
         inkscape:collect="always"
         stdDeviation="7.9927712"
         id="feGaussianBlur4453-1" />
    </filter>
    <filter
       color-interpolation-filters="sRGB"
       inkscape:collect="always"
       id="filter5349-2"
       x="-0.037771031"
       width="1.0755421"
       y="-0.11925888"
       height="1.2385178">
      <feGaussianBlur
         inkscape:collect="always"
         stdDeviation="1.7921311"
         id="feGaussianBlur5351-5" />
    </filter>
    <filter
       color-interpolation-filters="sRGB"
       inkscape:collect="always"
       id="filter5122-0-8"
       x="-0.045325235"
       width="1.0906506"
       y="-0.14311066"
       height="1.2862213">
      <feGaussianBlur
         inkscape:collect="always"
         stdDeviation="2.1505571"
         id="feGaussianBlur5124-6-0" />
    </filter>
    <filter
       color-interpolation-filters="sRGB"
       inkscape:collect="always"
       id="filter5293-7"
       x="-0.078309663"
       width="1.1566193"
       y="-0.11783345"
       height="1.2356669">
      <feGaussianBlur
         inkscape:collect="always"
         stdDeviation="4.4223708"
         id="feGaussianBlur5295-0" />
    </filter>
  </defs>
  <sodipodi:namedview
     id="base"
     pagecolor="#ffffff"
     bordercolor="#666666"
     borderopacity="1.0"
     inkscape:pageopacity="0.0"
     inkscape:pageshadow="2"
     inkscape:zoom="2.8"
     inkscape:cx="77.286423"
     inkscape:cy="70.695564"
     inkscape:document-units="px"
     inkscape:current-layer="layer1"
     showgrid="false"
     fit-margin-top="0"
     fit-margin-left="0"
     fit-margin-right="0"
     fit-margin-bottom="0"
     inkscape:window-width="1366"
     inkscape:window-height="702"
     inkscape:window-x="0"
     inkscape:window-y="27"
     inkscape:window-maximized="1" />
  <metadata
     id="metadata4714">
    <rdf:RDF>
      <cc:Work
         rdf:about="">
        <dc:format>image/svg+xml</dc:format>
        <dc:type
           rdf:resource="http://purl.org/dc/dcmitype/StillImage" />
        <dc:title></dc:title>
      </cc:Work>
    </rdf:RDF>
  </metadata>
  <g
     inkscape:label="Camada 1"
     inkscape:groupmode="layer"
     id="layer1"
     transform="translate(-240.59957,-480.69915)">
    <g
       id="g5501"
       transform="translate(56.330158,-631.72285)"
       style="opacity:0.9">
      <g
         style="opacity:0.95;fill:#ffffff;fill-opacity:1;stroke:#d5d5d5;stroke-width:2.1222198;stroke-linejoin:round;stroke-miterlimit:4;stroke-opacity:1;stroke-dasharray:none"
         transform="matrix(0.67446176,0,0,1.3168063,174.86193,-198.87578)"
         id="g3821-2-0">
        <path
           sodipodi:nodetypes="cccccccccccc"
           style="fill:#ffffff;fill-opacity:1;stroke:#d5d5d5;stroke-width:2.1222198;stroke-linejoin:round;stroke-miterlimit:4;stroke-opacity:1;stroke-dasharray:none"
           id="path3784-9-0-5"
           d="m 301.13083,1052.3622 c -5.02446,3.4429 -16.40078,5.651 -33.96493,2.8284 -8.89555,5.1364 -28.98141,7.2204 -51.59137,4.476 -23.98871,5.8911 -55.08077,6.3543 -81.81183,0.1919 -5.42602,2.4617 -36.304459,0.2272 -41.486427,-2.7955 -15.979364,2.2412 -41.056269,-1.0881 -45.492277,-3.8258 -35.121585,-0.1405 -44.6451465,-6.674 -10.601649,-8.2826 0.15678,-2.8902 7.479947,-7.3971 16.693837,-3.3767 3.615576,-14.0499 44.253027,-29.1053 64.931576,-16.4169 -2.23647,-23.0663 70.06374,-34.7345 90.56015,-9.6814 36.18614,-10.6971 86.54381,1.316 85.42134,22.7658 56.91117,3.7084 55.41678,13.0553 7.34158,14.1168 z"
           inkscape:connector-curvature="0" />
      </g>
      <g
         style="opacity:0.81020065;fill:#6d9496;fill-opacity:0.22140222;filter:url(#filter4451-10)"
         transform="matrix(0.50261972,0,0,0.87907926,201.90259,274.5852)"
         id="g3821-2-5-8-2">
        <path
           sodipodi:nodetypes="ccccccccccccc"
           style="fill:#6d9496;fill-opacity:0.22140222;stroke:none"
           id="path3784-9-0-1-8-7"
           d="m 346.56129,1035.2265 c -5.02446,3.4429 -23.97757,5.3178 -41.54172,2.4952 -8.89555,5.1364 -44.71783,8.5533 -67.32779,5.8089 -24.24117,8.8234 -76.27586,11.7119 -102.79372,1.0773 -2.41419,3.3813 -48.38027,3.072 -58.388499,-3.0144 -15.395708,4.9109 -58.991573,-1.8153 -63.560015,-5.1588 -21.0199789,-0.7855 -33.523775,-1.531 -3.6076861,-2.9508 0.15678,-2.8902 9.8112681,-6.3974 19.0251581,-2.377 7.767062,-21.605 40.372197,-40.87623 71.091021,-27.858 2.694441,-2.887 18.339011,-4.70613 26.803301,-2.8349 -5.22114,-37.81176 85.31668,-38.63028 104.80665,4.2614 34.79308,-19.45856 88.33219,-11.42943 88.91832,20.7664 67.35307,1.8714 84.40829,7.0065 26.57498,9.7847 z"
           inkscape:connector-curvature="0" />
      </g>
      <g
         style="opacity:0.475;fill:#ffffff;fill-opacity:1"
         transform="matrix(0.43327459,0,0,0.52136695,200.75578,639.25122)"
         id="g3821-2-5-8-1-83">
        <path
           sodipodi:nodetypes="ccc"
           style="opacity:0.6;fill:#ffffff;fill-opacity:1;stroke:none;filter:url(#filter5349-2)"
           id="path3784-9-0-1-8-9-74"
           d="M 77.824604,1020.0653 C 96.943474,975.51112 166.123,972.44448 191.69797,1009.7174 157.03567,985.21099 116.58945,982.04859 77.824604,1020.0653 z"
           inkscape:connector-curvature="0" />
      </g>
      <g
         style="opacity:0.475;fill:#ffffff;fill-opacity:1"
         transform="matrix(0.30590445,0,0,0.3824362,258.8817,776.39036)"
         id="g3821-2-5-8-1-2-1">
        <path
           sodipodi:nodetypes="ccc"
           style="opacity:0.6;fill:#ffffff;fill-opacity:1;stroke:none;filter:url(#filter5122-0-8)"
           id="path3784-9-0-1-8-9-7-20"
           d="m 50.570427,1047.3662 c 48.757144,-44.051 112.944373,-32.7657 148.676493,-2.534 -40.79622,-21.5653 -102.032201,-27.5941 -148.676493,2.534 z"
           inkscape:connector-curvature="0" />
      </g>
      <path
         sodipodi:nodetypes="ccc"
         style="opacity:0.37999998;fill:#ffffff;fill-opacity:1;stroke:none;filter:url(#filter5293-7)"
         id="path3784-9-0-1-8-9-7-7-0-4"
         d="M 280.76686,1015.555 C 302.92459,971.81354 446.54145,885.06396 466.79843,910.41642 433.04437,916.52184 309.97494,971.85824 280.76686,1015.555 z"
         inkscape:connector-curvature="0"
         transform="matrix(0.13632843,0,0,0.19114679,260.16472,963.39314)" />
    </g>
  </g>
</svg>
