<?xml version="1.0" encoding="UTF-8" standalone="no"?>
<!-- Created with Inkscape (http://www.inkscape.org/) -->

<svg
   xmlns:dc="http://purl.org/dc/elements/1.1/"
   xmlns:cc="http://creativecommons.org/ns#"
   xmlns:rdf="http://www.w3.org/1999/02/22-rdf-syntax-ns#"
   xmlns:svg="http://www.w3.org/2000/svg"
   xmlns="http://www.w3.org/2000/svg"
   xmlns:sodipodi="http://sodipodi.sourceforge.net/DTD/sodipodi-0.dtd"
   xmlns:inkscape="http://www.inkscape.org/namespaces/inkscape"
   width="94.628433"
   height="33.234264"
   id="svg4985"
   version="1.1"
   inkscape:version="0.48.4 r9939"
   sodipodi:docname="Novo documento 24">
  <defs
     id="defs4987">
    <filter
       color-interpolation-filters="sRGB"
       inkscape:collect="always"
       id="filter4865-8-0"
       x="-0.02834164"
       width="1.0566833"
       y="-0.19876263"
       height="1.3975252">
      <feGaussianBlur
         inkscape:collect="always"
         stdDeviation="4.3372888"
         id="feGaussianBlur4867-9-5" />
    </filter>
    <filter
       color-interpolation-filters="sRGB"
       inkscape:collect="always"
       id="filter5349-6-7-5"
       x="-0.037771031"
       width="1.0755421"
       y="-0.11925888"
       height="1.2385178">
      <feGaussianBlur
         inkscape:collect="always"
         stdDeviation="1.7921311"
         id="feGaussianBlur5351-3-1-5" />
    </filter>
    <filter
       color-interpolation-filters="sRGB"
       inkscape:collect="always"
       id="filter5122-0-6-8-5"
       x="-0.045325235"
       width="1.0906506"
       y="-0.14311066"
       height="1.2862213">
      <feGaussianBlur
         inkscape:collect="always"
         stdDeviation="2.1505571"
         id="feGaussianBlur5124-6-1-3-5" />
    </filter>
  </defs>
  <sodipodi:namedview
     id="base"
     pagecolor="#ffffff"
     bordercolor="#666666"
     borderopacity="1.0"
     inkscape:pageopacity="0.0"
     inkscape:pageshadow="2"
     inkscape:zoom="2.8"
     inkscape:cx="232.2518"
     inkscape:cy="39.626837"
     inkscape:document-units="px"
     inkscape:current-layer="layer1"
     showgrid="false"
     fit-margin-top="0"
     fit-margin-left="0"
     fit-margin-right="0"
     fit-margin-bottom="0"
     inkscape:window-width="1366"
     inkscape:window-height="702"
     inkscape:window-x="0"
     inkscape:window-y="27"
     inkscape:window-maximized="1" />
  <metadata
     id="metadata4990">
    <rdf:RDF>
      <cc:Work
         rdf:about="">
        <dc:format>image/svg+xml</dc:format>
        <dc:type
           rdf:resource="http://purl.org/dc/dcmitype/StillImage" />
        <dc:title></dc:title>
      </cc:Work>
    </rdf:RDF>
  </metadata>
  <g
     inkscape:label="Camada 1"
     inkscape:groupmode="layer"
     id="layer1"
     transform="translate(-302.69063,-515.54192)">
    <g
       id="g5722"
       style="opacity:0.85"
       transform="translate(252.86283,-756.77733)">
      <g
         style="opacity:0.81225;fill:#ffffff;fill-opacity:1;stroke:#d5d5d5;stroke-width:4.54138517;stroke-linejoin:round;stroke-miterlimit:4;stroke-opacity:1;stroke-dasharray:none"
         transform="matrix(0.31518052,0,0,0.61535244,40.595262,647.13578)"
         id="g3821-2-2-9-5">
        <path
           sodipodi:nodetypes="ccccccccccc"
           style="fill:#ffffff;fill-opacity:1;stroke:#d5d5d5;stroke-width:4.54138517;stroke-linejoin:round;stroke-miterlimit:4;stroke-opacity:1;stroke-dasharray:none"
           id="path3784-9-0-6-9-8"
           d="m 309.77437,1050.0432 c -0.0853,2.5996 -18.04717,6.4943 -24.08661,4.3041 -8.89555,5.1364 -36.80175,8.6962 -59.41171,5.9518 -23.98871,5.8911 -49.73001,7.4083 -76.46107,1.2459 -5.42602,2.4617 -52.356739,-1.4593 -57.538707,-4.482 -15.979364,2.2412 -41.056269,-1.0881 -45.492277,-3.8258 -21.682512,-0.2483 -20.335229,-10.2638 4.62744,-9.9691 15.754883,-13.1831 64.998424,-20.0546 86.152984,-12.2042 9.13359,-14.4092 81.443,-18.3592 95.49931,-2.9352 24.65939,-7.4056 60.55259,1.6918 60.72552,10.1167 33.41869,0.7815 47.17322,8.6324 15.98512,11.7978 z"
           inkscape:connector-curvature="0" />
      </g>
      <g
         style="opacity:0.6927215;fill:#6d9496;fill-opacity:0.22140222"
         transform="matrix(0.23487758,0,0,0.41079964,70.874463,883.69511)"
         id="g3821-2-5-8-10-0-8">
        <path
           sodipodi:nodetypes="ccccccccccc"
           style="fill:#6d9496;fill-opacity:0.22140222;stroke:none;filter:url(#filter4865-8-0)"
           id="path3784-9-0-1-8-3-1-8"
           d="m 280.83533,995.12088 c -5.02446,3.4429 -14.03583,8.79152 -31.59998,5.96892 -8.89555,7.43 -54.10725,12.2511 -76.71721,6.7563 -24.24117,8.8234 -74.618908,12.975 -101.136768,2.3404 -2.41419,3.3813 -67.1591166,-1.0333 -77.1673456,-7.1197 -15.3957074,4.9109 -43.5266404,-1.1837 -48.0950824,-4.52717 -32.986227,-1.87381 -3.3459,-9.67464 6.580368,-5.64359 29.082429,-14.0716 83.296044,-27.80015 105.074469,-13.00853 35.650468,-19.8116 93.049149,-20.94592 116.405349,-3.31762 21.53743,-6.51108 74.52422,-10.48205 80.08122,9.08209 41.22215,-0.32574 60.48239,4.67897 26.57498,9.4689 z"
           inkscape:connector-curvature="0" />
      </g>
      <g
         style="opacity:0.406125;fill:#ffffff;fill-opacity:1"
         transform="matrix(0.20247213,0,0,0.24363828,83.947541,1045.0368)"
         id="g3821-2-5-8-1-8-1-5">
        <path
           sodipodi:nodetypes="ccc"
           style="opacity:0.6;fill:#ffffff;fill-opacity:1;stroke:none;filter:url(#filter5349-6-7-5)"
           id="path3784-9-0-1-8-9-6-3-7"
           d="M 77.824604,1020.0653 C 96.943474,975.51112 166.123,972.44448 191.69797,1009.7174 157.03567,985.21099 116.58945,982.04859 77.824604,1020.0653 z"
           inkscape:connector-curvature="0" />
      </g>
      <g
         style="opacity:0.406125;fill:#ffffff;fill-opacity:1"
         transform="matrix(0.14295121,0,0,0.17871501,66.191183,1104.3506)"
         id="g3821-2-5-8-1-2-3-6-3">
        <path
           sodipodi:nodetypes="ccc"
           style="opacity:0.6;fill:#ffffff;fill-opacity:1;stroke:none;filter:url(#filter5122-0-6-8-5)"
           id="path3784-9-0-1-8-9-7-2-9-8"
           d="m 50.570427,1047.3662 c 48.757144,-44.051 112.944373,-32.7657 148.676493,-2.534 -40.79622,-21.5653 -102.032201,-27.5941 -148.676493,2.534 z"
           inkscape:connector-curvature="0" />
      </g>
    </g>
  </g>
</svg>
